<svg width="518" height="109" viewBox="0 0 518 109" fill="none" xmlns="http://www.w3.org/2000/svg">
<path d="M71.8693 8.58855L0 106.811H21.6387L36.2067 86.1406H90.6827V67.8832H49.0213L90.6827 8.58855H71.8693Z" fill="#008CFF"/>
<path d="M168.476 61.3288H197.854C197.285 52.9128 191.866 47.6354 183.593 47.6354C175.318 47.6354 169.614 52.7701 168.476 61.3288ZM218.113 75.8754H168.333V76.1608C168.333 85.1474 175.033 92.1394 185.017 92.1394C192.152 92.1394 196.289 88.5714 197.285 85.7168H217.393C215.4 95.9914 205.56 108.538 184.589 108.538C162.196 108.538 147.364 94.2754 147.364 70.3154C147.364 46.2114 162.053 31.3728 183.45 31.3728C204.562 31.3728 218.113 45.9274 218.113 68.7488V75.8754Z" fill="#00204D"/>
<path d="M343.289 59.3352V106.829H322.469V63.6152C322.469 54.0512 317.193 50.0645 310.628 50.0645C303.926 50.0645 298.073 54.7712 298.073 63.7565V106.829H277.253V63.6152C277.253 54.0512 271.977 50.0645 265.412 50.0645C258.712 50.0645 253.008 54.7712 253.008 63.7565V106.829H232.18V33.0885H252.146V41.5059C256.996 34.7979 264.842 31.3725 272.689 31.3725C280.821 31.3725 289.088 34.7979 293.944 42.7872C299.362 35.2245 308.492 31.3725 317.334 31.3725C330.166 31.3725 343.289 39.3619 343.289 59.3352Z" fill="#00204D"/>
<path d="M380.957 106.829H360.129V33.0893H380.957V106.829ZM382.381 11.692C382.381 18.3987 377.105 23.5333 370.397 23.5333C363.697 23.5333 358.564 18.3987 358.564 11.692C358.564 5.13334 363.697 7.62939e-06 370.397 7.62939e-06C377.105 7.62939e-06 382.381 5.13334 382.381 11.692Z" fill="#00204D"/>
<path d="M443.343 32.804V52.4853H438.494C425.941 52.4853 419.098 58.9 419.098 69.46V106.829H398.27V33.0893H418.237V44.496C423.085 35.9373 431.217 32.804 439.634 32.804H443.343Z" fill="#00204D"/>
<path d="M497.103 79.0163V75.7336H482.556C476.14 75.7336 471.576 78.8736 471.576 84.1496C471.576 89.2843 475.713 92.4243 482.128 92.4243C490.117 92.4243 497.103 87.5749 497.103 79.0163ZM517.503 58.6163V106.83H498.241V98.8403C493.677 104.835 485.98 108.538 476.425 108.538C462.163 108.538 450.748 99.9869 450.748 85.1469C450.748 70.0296 462.163 61.3283 480.989 61.3283H497.103V57.9043C497.103 51.0616 491.969 47.4936 484.984 47.4936C477.849 47.4936 474.139 50.7763 473 54.6283H453.604C455.597 41.9323 466.584 31.3723 485.839 31.3723C504.807 31.3723 517.503 40.6429 517.503 58.6163Z" fill="#00204D"/>
<path d="M133.296 8.58799H112.468V106.828H133.296V8.58799Z" fill="#DB4F3D"/>
<path d="M95.8638 8.58799H76.5691V106.828H95.8638V8.58799Z" fill="#008CFF"/>
</svg>
